{"title":"Hardwired 2009 720p HDTV XviD Ac3  Feel-Free","uid":6022146,"size":1987242059,"categoryP":"video","categoryS":"hd___movies","magnet":"?xt=urn:btih:88efe675a1b245711dfa4fadc28949d25749c18f&amp;dn=Hardwired+2009+720p+HDTV+XviD+Ac3++Feel-Free&amp;tr=udp%3A%2F%2Ftracker.openbittorrent.com%3A80&amp;tr=udp%3A%2F%2Fopen.demonii.com%3A1337&amp;tr=udp%3A%2F%2Ftracker.coppersurfer.tk%3A6969&amp;tr=udp%3A%2F%2Fexodus.desync.com%3A6969","seeders":2,"leechers":2,"uploader":"hiest","files":7,"time":1291830285,"description":"Genre:Action | Sci-Fi \nLanguage:English\nIMDb:http://www.imdb.com/title/tt1405412/\nSource:720p HDTV\n\nFormat : AVI\nFormat/Info : Audio Video Interleave\nFile size : 1.85 GiB\nDuration : 1h 33mn\nOverall bit rate : 2 824 Kbps\n\nVideo\nCodec ID/Hint : XviD\nDuration : 1h 33mn\nBit rate : 2 429 Kbps\nWidth : 1 280 pixels\nHeight : 720 pixels\nDisplay aspect ratio : 16:9\nFrame rate : 23.976 fps\nColor space : YUV\nChroma subsampling : 4:2:0\nBit depth : 8 bits\nScan type : Progressive\nBits/(Pixel*Frame) : 0.110\nStream size : 1.59 GiB (86%)\nWriting library : XviD 1.2.1 (UTC 2008-12-04)\n\nAudio\nID : 1\nFormat : AC-3\nFormat/Info : Audio Coding 3\nMode extension : CM (complete main)\nCodec ID : 2000\nDuration : 1h 33mn\nBit rate mode : Constant\nBit rate : 384 Kbps\nChannel(s) : 6 channels\nChannel positions : Front: L C R, Side: L R, LFE\nSampling rate : 48.0 KHz\nBit depth : 16 bits\nStream size : 257 MiB (14%)\nAlignment : Aligned on interleaves\nInterleave, duration : 32 ms (0.77 video frame)\n\nPlot:\nAfter a tragic accident claims the lives of Luke Gibson's (Gooding Jr.) wife and unborn child, he is left with critical injuries and complete amnesia\n\n\n\n\n\n\n\n================================== &lt;a href=&quot;\nhttp://thepiratebay.se/user/hiest&quot; rel=&quot;nofollow&quot; target=&quot;_NEW&quot;&gt;\nhttp://thepiratebay.se/user/hiest&lt;/a&gt;\n==================================\n","torrent":{"xt":"urn:btih:88efe675a1b245711dfa4fadc28949d25749c18f","amp;dn":"Hardwired+2009+720p+HDTV+XviD+Ac3++Feel-Free","amp;tr":["udp%3A%2F%2Ftracker.openbittorrent.com%3A80","udp%3A%2F%2Fopen.demonii.com%3A1337","udp%3A%2F%2Ftracker.coppersurfer.tk%3A6969","udp%3A%2F%2Fexodus.desync.com%3A6969"],"infoHash":"88efe675a1b245711dfa4fadc28949d25749c18f","infoHashBuffer":{"type":"Buffer","data":[136,239,230,117,161,178,69,113,29,250,79,173,194,137,73,210,87,73,193,143]},"announce":[],"urlList":[]}}